<svg width="152" height="152" viewBox="0 18 116 116" fill="currentColor" xmlns="http://www.w3.org/2000/svg">
<path d="M32.8756 96.2789L2.01278 82.8603C0.670925 82.1894 0 81.5184 0 80.1766V71.4545C0 70.1126 0.670925 69.4417 2.01278 68.7708L32.8756 55.3522C34.8883 54.6813 35.5593 55.3522 35.5593 57.365V64.0743C35.5593 65.4161 34.8883 66.758 33.5465 66.758L12.0767 75.4801L33.5465 84.2022C34.8883 84.8731 35.5593 85.544 35.5593 86.8859V94.2661C36.2302 96.2789 34.8883 96.9498 32.8756 96.2789Z"/>
<path d="M42.2686 108.659L59.7127 42.908C60.3837 41.5662 61.0546 40.8953 62.3964 40.8953H70.4476C72.4604 40.8953 73.1313 42.2371 72.4604 43.579L55.6871 109.33C55.0162 110.672 54.3453 111.343 53.0034 111.343H44.9523C42.9395 111.343 42.2686 110.001 42.2686 108.659Z"/>
<path d="M79.8398 94.2661V86.8859C79.8398 85.5441 80.5108 84.2022 81.8526 84.2022L103.322 75.4801L81.8526 66.758C80.5108 66.0871 79.8398 65.4162 79.8398 64.0743V56.6941C79.8398 54.6813 81.1817 54.0104 82.5236 54.6813L113.386 68.0999C114.728 68.7708 115.399 69.4417 115.399 70.7836V79.5057C115.399 80.8475 114.728 81.5185 113.386 82.1894L82.5236 95.608C81.1817 96.9499 79.8398 96.2789 79.8398 94.2661Z"/>
</svg>
