<?xml version="1.0" encoding="utf-8"?>
<!-- Generator: Adobe Illustrator 26.1.0, SVG Export Plug-In . SVG Version: 6.00 Build 0)  -->
<svg version="1.1" xmlns="http://www.w3.org/2000/svg" xmlns:xlink="http://www.w3.org/1999/xlink" x="0px" y="0px"
	 viewBox="0 0 150.4 35.1" style="enable-background:new 0 0 150.4 35.1;" xml:space="preserve">
<style type="text/css">
	.st0{fill:#425CC7;}
</style>
<g>
	<path d="M0,0.5h12.7c6.8,0,11.5,3.6,11.5,10.1c0,4.8-2.7,7.6-5.8,8.6c4.4,2.3,6.5,8.5,7,15.4h-8.9c-1-6.9-3.2-11.9-7.2-11.9H8.5
		v11.9H0V0.5z M12.6,8.7H8.5v5.7h4.1c1.7,0,2.8-1,2.8-2.8C15.4,9.7,14.3,8.7,12.6,8.7z"/>
	<path d="M70.4,31.8c-1.2,1.9-3.2,3.3-6.2,3.3c-5.2,0-8.6-4-8.6-9.2V9.3h8.2v14.1c0,2.3,1.2,3.7,3.2,3.7c1.9,0,3.2-1.2,3.3-3.4V9.3
		h8.2v25.2h-8.2V31.8z"/>
	<path d="M83.9,34.5V16.3h-3.4v-7h3.9V4.2L92,2.5v6.8h3.9v7H92v18.3H83.9z"/>
	<path d="M105.7,24.4c0.6,2.1,2.7,3.4,5.7,3.4s5.9-0.7,8.3-2v7.7c-2.3,1.1-5.5,1.6-9,1.6c-7.6,0-13.1-5.2-13.1-13.2
		c0-7.4,5.3-13.1,12.6-13.1c7.4,0,11.6,5.5,11.6,11.8c0,1.2-0.2,2.8-0.5,3.8H105.7z M105.7,18.3h8.4c-0.2-1.7-1.7-2.8-3.9-2.8
		C107.8,15.5,106.1,16.8,105.7,18.3z"/>
	<path d="M142.2,32.2c-1.8,1.9-4.1,2.9-6.9,2.9c-7,0-11.7-5.8-11.7-13.2s4.7-13.1,11.8-13.1c2.8,0,5,1,6.8,2.9V0h8.2v34.5h-8.2V32.2
		z M137.2,16.8c-3,0-5.1,2.4-5.1,5.1s2.2,5.2,5.1,5.2s5-2.4,5-5.2S140.1,16.8,137.2,16.8z"/>
	<g>
		<path class="st0" d="M29.7,21.3l3.3-5l3.5,8.1l4.6-13.2l4.5,11.4l1.2-1.4h6c-0.1-7.2-6-13-13.2-13s-13.1,5.8-13.2,13H29.7z"/>
		<path class="st0" d="M52.6,24.1h-4.5L44.7,28l-3.4-8.8l-4.4,12.7l-4.3-9.8l-1.3,1.9h-4.6c1.2,6.1,6.6,10.7,13,10.7
			c2.9,0,5.5-0.9,7.7-2.4l6.5,2.4l-3.1-5.9C51.6,27.5,52.3,25.8,52.6,24.1z"/>
	</g>
</g>
</svg>
