<svg xmlns="http://www.w3.org/2000/svg" width="619" height="122" fill="none" viewBox="0 0 619 122"><path fill="#fff" fill-rule="evenodd" d="M18.263 121.864c-9.97-.253-18.004-8.288-18.257-18.256L0 103.123v-49.32a18.75 18.75 0 0 1 6.161-13.895l.385-.338 40.9-35.058c7.02-6.017 17.38-6.017 24.4 0l40.9 35.058a18.75 18.75 0 0 1 6.547 14.233v49.32l-.006.485c-.253 9.968-8.288 18.003-18.257 18.256zm92.282-68.061v49.32l-.014.515c-.268 5.283-4.635 9.483-9.984 9.483h-81.8c-5.522 0-9.999-4.476-9.999-9.998v-49.32a10 10 0 0 1 3.491-7.59l40.9-35.058.357-.292a10 10 0 0 1 12.657.292l40.9 35.057.404.366a10 10 0 0 1 3.088 7.225" clip-rule="evenodd"/><path fill="#fff" d="M79.973 50.744a6.422 6.422 0 0 1 9.082 9.082L55.442 93.441a7.064 7.064 0 0 1-9.99 0L30.013 78a6.421 6.421 0 1 1 9.081-9.081l11.352 11.352zM182.539 116.184q-7.344 0-13.248-2.496-5.856-2.496-9.696-7.104-3.792-4.656-4.944-10.992l8.832-1.392q1.68 6.528 6.96 10.224 5.328 3.648 12.528 3.648 4.656 0 8.4-1.44 3.792-1.488 6-4.224t2.208-6.48q0-2.304-.816-3.936a7.9 7.9 0 0 0-2.16-2.832 12.8 12.8 0 0 0-3.072-2.016 23 23 0 0 0-3.6-1.344l-17.616-5.232a38 38 0 0 1-5.568-2.16 20.3 20.3 0 0 1-4.8-3.312q-2.112-2.016-3.36-4.8-1.248-2.832-1.248-6.672 0-6.144 3.168-10.464 3.216-4.368 8.688-6.672t12.336-2.256q6.96.048 12.432 2.496 5.52 2.4 9.12 6.912 3.648 4.512 4.896 10.8l-9.072 1.584q-.72-4.224-3.216-7.248-2.448-3.072-6.144-4.704-3.696-1.68-8.112-1.728-4.224-.048-7.632 1.344t-5.424 3.888q-2.016 2.448-2.016 5.664 0 3.168 1.824 5.136 1.824 1.92 4.464 3.072a49 49 0 0 0 5.232 1.824l13.152 3.792q2.256.624 5.184 1.728 2.976 1.104 5.76 3.12 2.784 1.968 4.608 5.28 1.824 3.264 1.824 8.256t-2.016 8.88q-1.968 3.888-5.52 6.528-3.552 2.592-8.256 3.936-4.704 1.392-10.08 1.392m50.677 0q-5.808 0-9.744-2.112-3.888-2.16-5.904-5.664-1.968-3.504-1.968-7.68 0-4.08 1.536-7.056a13.8 13.8 0 0 1 4.416-4.992q2.832-2.016 6.768-3.168 3.696-1.008 8.256-1.728 4.608-.768 9.312-1.392t8.784-1.2l-3.072 1.776q.144-6.912-2.784-10.224-2.88-3.312-9.984-3.312-4.704 0-8.256 2.16-3.504 2.112-4.944 6.912l-8.112-2.448q1.872-6.816 7.248-10.704t14.16-3.888q7.056 0 12.096 2.544 5.088 2.496 7.296 7.584 1.104 2.4 1.392 5.232.288 2.784.288 5.856v32.064h-7.584v-12.432l1.776 1.152q-2.928 6.288-8.208 9.504-5.232 3.216-12.768 3.216m1.296-7.152q4.608 0 7.968-1.632 3.408-1.68 5.472-4.368 2.064-2.736 2.688-5.952.72-2.4.768-5.328.096-2.976.096-4.56l2.976 1.296q-4.176.576-8.208 1.104t-7.632 1.152q-3.6.576-6.48 1.392a21 21 0 0 0-3.984 1.728A9.05 9.05 0 0 0 225.2 96.6q-1.104 1.632-1.104 4.08 0 2.112 1.056 4.032 1.104 1.92 3.36 3.12 2.304 1.2 6 1.2m42.912 5.712V60.072q0-2.016.192-4.08.192-2.112.864-4.08.672-2.016 2.208-3.696 1.776-1.968 3.888-2.784a14.7 14.7 0 0 1 4.272-1.056 48 48 0 0 1 4.176-.192h6.576v7.104h-6.096q-3.792 0-5.664 1.872-1.872 1.824-1.872 5.568v56.016zM268.64 69.96v-7.056h30.96v7.056zm59.21 46.224q-7.632 0-13.344-3.36-5.664-3.408-8.832-9.456-3.168-6.096-3.168-14.208 0-8.496 3.12-14.688 3.12-6.24 8.688-9.6 5.616-3.408 13.152-3.408 7.824 0 13.296 3.6 5.52 3.6 8.256 10.272 2.784 6.672 2.4 15.888h-8.64v-3.072q-.144-9.552-3.888-14.256-3.744-4.752-11.136-4.752-7.92 0-12.048 5.088t-4.128 14.592q0 9.168 4.128 14.208t11.76 5.04q5.136 0 8.928-2.352t5.952-6.768l8.208 2.832q-3.024 6.864-9.12 10.656-6.048 3.744-13.584 3.744m-19.152-24.96V84.36h38.304v6.864zm53.407 23.52v-69.12h8.544v30.48h36.384v-30.48h8.544v69.12h-8.544V84.216h-36.384v30.528zm89.017 1.44q-7.728 0-13.344-3.504-5.568-3.504-8.592-9.696t-3.024-14.208q0-8.16 3.072-14.304t8.688-9.552q5.616-3.456 13.2-3.456 7.776 0 13.392 3.504 5.616 3.456 8.592 9.648 3.024 6.144 3.024 14.16 0 8.112-3.024 14.304-3.024 6.144-8.64 9.648-5.616 3.456-13.344 3.456m0-8.112q8.064 0 12-5.376t3.936-13.92q0-8.784-3.984-13.968-3.984-5.232-11.952-5.232-5.424 0-8.928 2.448t-5.232 6.768-1.728 9.984q0 8.736 4.032 14.016t11.856 5.28m97.545 6.672.048-33.168q0-5.808-3.12-9.072-3.072-3.312-8.016-3.312-2.88 0-5.472 1.344-2.592 1.296-4.224 4.128-1.632 2.784-1.632 7.152l-4.512-1.824q-.096-5.52 2.256-9.648 2.4-4.176 6.528-6.48t9.312-2.304q8.112 0 12.768 4.944 4.656 4.896 4.656 13.2l-.048 35.04zm-62.016 0v-51.84h7.632v13.872h.96v37.968zm31.056 0 .048-32.832q0-5.952-3.072-9.312-3.072-3.408-8.16-3.408-5.04 0-8.16 3.456t-3.12 9.168l-4.512-2.688q0-5.04 2.4-9.024t6.528-6.24q4.128-2.304 9.36-2.304t9.12 2.208 6 6.336q2.112 4.08 2.112 9.744l-.048 34.896zm74.049 1.44q-7.632 0-13.344-3.36-5.664-3.408-8.832-9.456-3.168-6.096-3.168-14.208 0-8.496 3.12-14.688 3.12-6.24 8.688-9.6 5.616-3.408 13.152-3.408 7.824 0 13.296 3.6 5.52 3.6 8.256 10.272 2.784 6.672 2.4 15.888h-8.64v-3.072q-.144-9.552-3.888-14.256-3.744-4.752-11.136-4.752-7.92 0-12.048 5.088t-4.128 14.592q0 9.168 4.128 14.208t11.76 5.04q5.136 0 8.928-2.352t5.952-6.768l8.208 2.832q-3.024 6.864-9.12 10.656-6.048 3.744-13.584 3.744m-19.152-24.96V84.36h38.304v6.864z"/></svg>