<svg width="55" height="74" viewBox="0 0 55 74" fill="none" xmlns="http://www.w3.org/2000/svg">
<g clip-path="url(#clip0_1001_2)">
<path fill-rule="evenodd" clip-rule="evenodd" d="M47.9 58.9H6.39999C4.99999 58.9 3.89999 57.8 3.89999 56.4V45.5C3.89999 44.1 4.99999 43 6.39999 43H47.9C49.3 43 50.4 44.1 50.4 45.5V56.4C50.4 57.8 49.3 58.9 47.9 58.9ZM27.5 46.1L24.9 55.9C24.9 56.1 25 56.3 25.3 56.3H26.5C26.7 56.3 26.8 56.2 26.9 56L29.4 46.2C29.5 46 29.4 45.8 29.1 45.8H27.9C27.7 45.8 27.6 45.9 27.5 46.1ZM30.5 54.5V53.4C30.5 53.2 30.6 53 30.8 53L34 51.7L30.8 50.4C30.6 50.3 30.5 50.2 30.5 50V48.9C30.5 48.6 30.7 48.5 30.9 48.6L35.5 50.6C35.7 50.7 35.8 50.8 35.8 51V52.3C35.8 52.5 35.7 52.6 35.5 52.7L30.9 54.7C30.7 54.9 30.5 54.8 30.5 54.5ZM18.9 52.8L23.5 54.8C23.8 54.9 24 54.8 23.9 54.5V53.4C23.9 53.2 23.8 53.1 23.6 53L20.4 51.7L23.6 50.4C23.8 50.4 23.9 50.2 23.9 50V49C23.9 48.7 23.8 48.6 23.5 48.7L18.9 50.7C18.7 50.8 18.6 50.9 18.6 51.1V52.4C18.6 52.6 18.7 52.7 18.9 52.8Z" fill="#F22613"/>
<path d="M30 2.8C30 1.2 28.7 0 27.1 0C25.5 0 24.3 1.2 24.2 2.8C26.8 2.6 27.5 2.6 30 2.8Z" fill="#F22613"/>
<path d="M1.1 55.6C1.8 55.7 2.4 55.1 2.4 54.4V26.8C2.4 26.1 1.8 25.6 1.1 25.6C0.5 25.7 0 26.2 0 26.8V54.2C0.1 55 0.5 55.5 1.1 55.6Z" fill="#F22613"/>
<path d="M51.8 26.9V54.4C51.8 55.1 52.4 55.6 53.1 55.6C53.7 55.5 54.2 55 54.2 54.4V26.8C54.2 26.1 53.6 25.6 52.9 25.6C52.3 25.7 51.8 26.3 51.8 26.9Z" fill="#F22613"/>
<path d="M53 60.3H1.4C0.6 60.3 0 61 0 61.7V62.5C0 63.3 0.6 64 1.4 64H11.7L5.6 70.8C4.5 72 5.7 73.6 7.6 73.6H46.7C48.6 73.6 49.8 72 48.8 70.8L42.8 64H53C53.8 64 54.4 63.4 54.4 62.6V61.8C54.4 61 53.8 60.3 53 60.3Z" fill="#F22613"/>
<path d="M1 15.6C1 16.1 1.4 16.6 2 16.6C3.1 16.6 3.9 17.5 3.9 18.5V39C3.9 40.4 5 41.5 6.4 41.5H47.9C49.3 41.5 50.4 40.4 50.4 39V18.5C50.4 17.4 51.3 16.6 52.3 16.6C52.8 16.6 53.3 16.2 53.3 15.6V13.7C35.8 7.9 18.4 7.9 1 13.7V15.6ZM35.5 20.1C35.5 18.8 36.6 17.6 38 17.6H44.9C46.2 17.6 47.4 18.7 47.4 20.1V36.3C47.4 37.6 46.3 38.8 44.9 38.8H38C36.7 38.8 35.5 37.7 35.5 36.3V20.1ZM21.2 20.1C21.2 18.8 22.3 17.6 23.7 17.6H30.6C31.9 17.6 33.1 18.7 33.1 20.1V36.3C33.1 37.6 32 38.8 30.6 38.8H23.7C22.4 38.8 21.2 37.7 21.2 36.3V20.1ZM7 20.1C7 18.8 8.1 17.6 9.5 17.6H16.4C17.7 17.6 18.9 18.7 18.9 20.1V36.3C18.9 37.6 17.8 38.8 16.4 38.8H9.5C8.2 38.8 7 37.7 7 36.3V20.1Z" fill="#F22613"/>
<path d="M10.6 7.4C10.6 7.4 24.6 2.8 43.8 7.4" stroke="#F22613" stroke-width="3.4334" stroke-miterlimit="10" stroke-linecap="round"/>
<path d="M1.89999 15.2C1.89999 15.2 23.3 4.3 52.5 15.2" stroke="#F22613" stroke-width="3.4334" stroke-miterlimit="10" stroke-linecap="round"/>
</g>
<defs>
<clipPath id="clip0_1001_2">
<rect width="54.4" height="73.6" fill="white"/>
</clipPath>
</defs>
</svg>
