<?xml version="1.0" encoding="utf-8"?>
<!-- Generator: Adobe Illustrator 28.0.0, SVG Export Plug-In . SVG Version: 6.00 Build 0)  -->
<svg version="1.1" id="Layer_1" xmlns="http://www.w3.org/2000/svg" xmlns:xlink="http://www.w3.org/1999/xlink" x="0px" y="0px"
	 viewBox="0 0 217.3 107.7" style="enable-background:new 0 0 217.3 107.7;" xml:space="preserve">
<style type="text/css">
	.st0{fill:#F22613;}
	.st1{fill:#010101;}
	.st2{fill:none;stroke:#F22613;stroke-width:5.0271;stroke-linecap:round;stroke-miterlimit:10;}
	.st3{fill:#FFFFFF;}
</style>
<g>
	<g>
		<g>
			<g>
				<path class="st0" d="M9.4,86.3h60.7c2,0,3.6-1.6,3.6-3.6l0-16c0-2-1.6-3.6-3.6-3.6H9.4c-2,0-3.6,1.6-3.6,3.6v16
					C5.8,84.7,7.4,86.3,9.4,86.3z"/>
				<polygon class="st1" points="18.5,12.9 18.5,12.9 18.5,12.9 				"/>
				<path class="st0" d="M44,4.1C43.9,1.8,42,0,39.7,0c-2.3,0-4.1,1.8-4.2,4.1C39.2,3.7,40.3,3.7,44,4.1z"/>
				<polygon class="st1" points="44,4.1 44,4.1 44,4.1 				"/>
				<path class="st0" d="M1.6,81.4c1,0.1,1.9-0.7,1.9-1.7V39.3c0-1-0.9-1.8-1.9-1.7c-0.9,0.1-1.6,0.9-1.6,1.8v40.2
					C0.1,80.5,0.7,81.3,1.6,81.4z"/>
				<path class="st0" d="M75.9,39.4v40.3c0,1,0.9,1.8,1.9,1.7c0.9-0.1,1.6-0.9,1.6-1.8V39.3c0-1-0.9-1.8-1.9-1.7
					C76.6,37.7,75.9,38.5,75.9,39.4z"/>
				<path class="st0" d="M77.7,88.3H2.1c-1.1,0-2.1,0.9-2.1,2.1v1.2c0,1.1,0.9,2.1,2.1,2.1h15.1l-8.9,9.9c-1.6,1.8,0.1,4.1,3,4.1
					h57.3c2.8,0,4.6-2.3,3-4.1l-8.7-10h14.9c1.1,0,2.1-0.9,2.1-2.1v-1.2C79.7,89.3,78.8,88.3,77.7,88.3z"/>
				<path class="st0" d="M1.5,22.9c0,0.8,0.6,1.4,1.4,1.4c1.6,0,2.8,1.3,2.8,2.8v30.1c0,2,1.6,3.6,3.6,3.6h60.7c2,0,3.6-1.6,3.6-3.6
					V27.1c0-1.5,1.3-2.8,2.8-2.8c0.8,0,1.4-0.6,1.4-1.4v-2.8c-25.5-8.5-50.9-8.5-76.4,0l0,0V22.9z M51.9,29.4c0-2,1.6-3.6,3.6-3.6
					h10.1c2,0,3.6,1.6,3.6,3.6v23.7c0,2-1.6,3.6-3.6,3.6H55.5c-2,0-3.6-1.6-3.6-3.6V29.4z M31.1,29.4c0-2,1.6-3.6,3.6-3.6h10.1
					c2,0,3.6,1.6,3.6,3.6v23.7c0,2-1.6,3.6-3.6,3.6H34.7c-2,0-3.6-1.6-3.6-3.6V29.4z M10.3,29.4c0-2,1.6-3.6,3.6-3.6h10.1
					c2,0,3.6,1.6,3.6,3.6v23.7c0,2-1.6,3.6-3.6,3.6H13.9c-2,0-3.6-1.6-3.6-3.6V29.4z"/>
			</g>
			<path class="st2" d="M15.6,10.8c0,0,20.6-6.7,48.5,0"/>
			<path class="st2" d="M2.7,22.3c0,0,31.4-15.9,74.1,0"/>
		</g>
		<g>
			<path class="st3" d="M34.5,80.3l-6.8-3c-0.3-0.1-0.4-0.3-0.4-0.6v-1.8c0-0.3,0.1-0.5,0.4-0.6l6.8-3c0.4-0.2,0.6,0,0.6,0.4v1.6
				c0,0.3-0.2,0.5-0.4,0.6L30,75.8l4.7,1.9c0.3,0.1,0.4,0.3,0.4,0.6v1.6C35.1,80.3,34.8,80.5,34.5,80.3z"/>
			<path class="st3" d="M36.5,81.8l3.8-14.3c0.1-0.3,0.3-0.5,0.6-0.5h1.8c0.4,0,0.6,0.2,0.5,0.6l-3.8,14.3c-0.1,0.3-0.3,0.5-0.6,0.5
				H37C36.6,82.4,36.4,82.2,36.5,81.8z"/>
			<path class="st3" d="M44.6,79.9v-1.6c0-0.3,0.2-0.5,0.4-0.6l4.7-1.9l-4.7-1.9c-0.3-0.1-0.4-0.3-0.4-0.6v-1.6
				c0-0.4,0.3-0.6,0.6-0.4l6.8,3c0.3,0.1,0.4,0.3,0.4,0.6v1.8c0,0.3-0.1,0.5-0.4,0.6l-6.8,3C44.9,80.5,44.6,80.3,44.6,79.9z"/>
		</g>
	</g>
	<g>
		<path d="M106.4,21.8h-3.9v-0.9c0-0.9-0.2-1.7-0.6-2.3c-0.4-0.6-1.1-1-2.1-1c-0.5,0-1,0.1-1.3,0.3c-0.3,0.2-0.6,0.5-0.8,0.8
			c-0.2,0.3-0.3,0.7-0.4,1.1c-0.1,0.4-0.1,0.9-0.1,1.3c0,0.5,0,1,0.1,1.3c0,0.4,0.1,0.7,0.3,1s0.4,0.5,0.7,0.7
			c0.3,0.2,0.7,0.4,1.2,0.6l3,1.2c0.9,0.3,1.6,0.7,2.1,1.2c0.5,0.4,1,1,1.3,1.5c0.3,0.6,0.5,1.3,0.6,2.1c0.1,0.8,0.2,1.7,0.2,2.6
			c0,1.1-0.1,2.2-0.3,3.2c-0.2,1-0.6,1.8-1.1,2.5c-0.5,0.7-1.2,1.3-2.1,1.7c-0.9,0.4-1.9,0.6-3.2,0.6c-0.9,0-1.8-0.2-2.6-0.5
			c-0.8-0.3-1.5-0.8-2.1-1.4c-0.6-0.6-1-1.3-1.4-2c-0.3-0.8-0.5-1.6-0.5-2.5v-1.4H97v1.2c0,0.7,0.2,1.3,0.6,1.9
			c0.4,0.6,1.1,0.9,2.1,0.9c0.7,0,1.2-0.1,1.5-0.3s0.7-0.5,0.9-0.8c0.2-0.4,0.3-0.8,0.4-1.3s0.1-1,0.1-1.7c0-0.7,0-1.3-0.1-1.7
			c-0.1-0.5-0.2-0.8-0.3-1.1c-0.2-0.3-0.4-0.5-0.7-0.7c-0.3-0.2-0.7-0.4-1.2-0.6l-2.8-1.1c-1.7-0.7-2.8-1.6-3.4-2.7
			c-0.6-1.1-0.9-2.5-0.9-4.2c0-1,0.1-2,0.4-2.9c0.3-0.9,0.7-1.7,1.3-2.4c0.5-0.7,1.2-1.2,2-1.6c0.8-0.4,1.8-0.6,2.9-0.6
			c1,0,1.8,0.2,2.6,0.5c0.8,0.4,1.5,0.8,2.1,1.4c1.2,1.2,1.7,2.6,1.7,4.2V21.8z"/>
		<path d="M109.1,41V14h11.6v3.6H113v8.2h6.7v3.6H113V41H109.1z"/>
		<path d="M106.2,66.3V68c0,0.8-0.2,1.6-0.5,2.4c-0.3,0.7-0.8,1.4-1.3,2c-0.6,0.6-1.2,1-2,1.4c-0.7,0.3-1.6,0.5-2.4,0.5
			c-0.7,0-1.5-0.1-2.2-0.3c-0.8-0.2-1.4-0.6-2.1-1.1c-0.6-0.5-1.1-1.2-1.5-2c-0.4-0.8-0.6-1.8-0.6-3.1V53c0-0.9,0.2-1.7,0.5-2.5
			c0.3-0.8,0.7-1.4,1.3-2c0.6-0.6,1.2-1,2-1.3c0.8-0.3,1.6-0.5,2.6-0.5c1.8,0,3.3,0.6,4.4,1.8c0.6,0.6,1,1.3,1.3,2.1
			c0.3,0.8,0.5,1.7,0.5,2.6v1.5h-3.9v-1.3c0-0.8-0.2-1.4-0.6-2s-1-0.8-1.7-0.8c-1,0-1.6,0.3-1.9,0.9c-0.3,0.6-0.5,1.3-0.5,2.3v13.8
			c0,0.8,0.2,1.4,0.5,2c0.3,0.5,1,0.8,1.8,0.8c0.3,0,0.5,0,0.8-0.1s0.6-0.2,0.8-0.4c0.2-0.2,0.4-0.5,0.6-0.8
			c0.2-0.4,0.2-0.8,0.2-1.3v-1.3H106.2z"/>
		<path d="M109.1,74V47h3.9V74H109.1z"/>
		<path d="M130,47L124.4,74H121L115.5,47h4.1l3.1,18.9h0.1l3.1-18.9H130z"/>
		<path d="M132.5,74V47h3.9V74H132.5z"/>
		<path d="M152.1,66.3V68c0,0.8-0.2,1.6-0.5,2.4c-0.3,0.7-0.8,1.4-1.3,2c-0.6,0.6-1.2,1-2,1.4c-0.7,0.3-1.6,0.5-2.4,0.5
			c-0.7,0-1.5-0.1-2.2-0.3c-0.8-0.2-1.4-0.6-2.1-1.1c-0.6-0.5-1.1-1.2-1.5-2c-0.4-0.8-0.6-1.8-0.6-3.1V53c0-0.9,0.2-1.7,0.5-2.5
			c0.3-0.8,0.7-1.4,1.3-2c0.6-0.6,1.2-1,2-1.3c0.8-0.3,1.6-0.5,2.6-0.5c1.8,0,3.3,0.6,4.4,1.8c0.6,0.6,1,1.3,1.3,2.1
			c0.3,0.8,0.5,1.7,0.5,2.6v1.5h-3.9v-1.3c0-0.8-0.2-1.4-0.6-2s-1-0.8-1.7-0.8c-1,0-1.6,0.3-1.9,0.9c-0.3,0.6-0.5,1.3-0.5,2.3v13.8
			c0,0.8,0.2,1.4,0.5,2c0.3,0.5,1,0.8,1.8,0.8c0.3,0,0.5,0,0.8-0.1s0.6-0.2,0.8-0.4c0.2-0.2,0.4-0.5,0.6-0.8
			c0.2-0.4,0.2-0.8,0.2-1.3v-1.3H152.1z"/>
		<path d="M164.8,74V50.6h-4.5V47h12.8v3.6h-4.5V74H164.8z"/>
		<path d="M175.4,74V47h11.6v3.6h-7.7v7.9h6.7v3.6h-6.7v7.9h7.7V74H175.4z"/>
		<path d="M201.9,66.3V68c0,0.8-0.2,1.6-0.5,2.4c-0.3,0.7-0.8,1.4-1.3,2c-0.6,0.6-1.2,1-2,1.4c-0.7,0.3-1.6,0.5-2.4,0.5
			c-0.7,0-1.5-0.1-2.2-0.3c-0.8-0.2-1.4-0.6-2.1-1.1c-0.6-0.5-1.1-1.2-1.5-2c-0.4-0.8-0.6-1.8-0.6-3.1V53c0-0.9,0.2-1.7,0.5-2.5
			c0.3-0.8,0.7-1.4,1.3-2c0.6-0.6,1.2-1,2-1.3c0.8-0.3,1.6-0.5,2.6-0.5c1.8,0,3.3,0.6,4.4,1.8c0.6,0.6,1,1.3,1.3,2.1
			c0.3,0.8,0.5,1.7,0.5,2.6v1.5H198v-1.3c0-0.8-0.2-1.4-0.6-2s-1-0.8-1.7-0.8c-1,0-1.6,0.3-1.9,0.9c-0.3,0.6-0.5,1.3-0.5,2.3v13.8
			c0,0.8,0.2,1.4,0.5,2c0.3,0.5,1,0.8,1.8,0.8c0.3,0,0.5,0,0.8-0.1c0.3-0.1,0.6-0.2,0.8-0.4c0.2-0.2,0.4-0.5,0.6-0.8
			c0.2-0.4,0.2-0.8,0.2-1.3v-1.3H201.9z"/>
		<path d="M204.7,74V47h3.9v11.6h4.8V47h3.9V74h-3.9V62h-4.8v12H204.7z"/>
		<path d="M86.9,107v-3.9h3.9v3.9H86.9z"/>
		<path d="M93.6,86.4c0-1.1,0.2-2.1,0.6-2.9s0.9-1.5,1.5-2.1c0.6-0.5,1.3-0.9,2.1-1.2c0.8-0.3,1.6-0.4,2.3-0.4
			c0.8,0,1.6,0.1,2.3,0.4c0.8,0.3,1.5,0.7,2.1,1.2c0.6,0.6,1.1,1.3,1.5,2.1s0.6,1.8,0.6,2.9v14.3c0,1.1-0.2,2.1-0.6,2.9
			c-0.4,0.8-0.9,1.5-1.5,2c-0.6,0.6-1.3,1-2.1,1.3c-0.8,0.3-1.6,0.4-2.3,0.4c-0.8,0-1.6-0.1-2.3-0.4s-1.5-0.7-2.1-1.3
			c-0.6-0.5-1.1-1.2-1.5-2c-0.4-0.8-0.6-1.8-0.6-2.9V86.4z M97.5,100.7c0,0.9,0.3,1.6,0.8,2.1c0.5,0.4,1.1,0.7,1.8,0.7
			c0.7,0,1.3-0.2,1.8-0.7c0.5-0.4,0.8-1.1,0.8-2.1V86.4c0-0.9-0.3-1.6-0.8-2.1c-0.5-0.4-1.1-0.7-1.8-0.7c-0.7,0-1.3,0.2-1.8,0.7
			c-0.5,0.4-0.8,1.1-0.8,2.1V100.7z"/>
		<path d="M109.7,107V80h6.2c4.6,0,6.8,2.6,6.8,7.9c0,1.6-0.2,3-0.7,4.1c-0.5,1.1-1.4,2-2.6,2.7l4.2,12.4h-4.1l-3.6-11.6h-2.3V107
			H109.7z M113.5,83.6v8.4h2.2c0.7,0,1.2-0.1,1.6-0.3c0.4-0.2,0.7-0.5,0.9-0.8c0.2-0.4,0.3-0.8,0.4-1.3c0.1-0.5,0.1-1.1,0.1-1.8
			s0-1.3-0.1-1.8c-0.1-0.5-0.2-1-0.5-1.3c-0.5-0.7-1.4-1.1-2.7-1.1H113.5z"/>
		<path d="M125.5,86.4c0-1.1,0.2-2.1,0.6-2.9s0.9-1.5,1.5-2.1c0.6-0.5,1.3-0.9,2.1-1.2c0.8-0.3,1.6-0.4,2.3-0.4
			c0.8,0,1.6,0.1,2.3,0.4c0.8,0.3,1.5,0.7,2.1,1.2c0.6,0.6,1.1,1.3,1.5,2.1s0.6,1.8,0.6,2.9v1.4h-3.9v-1.4c0-0.9-0.3-1.6-0.8-2.1
			c-0.5-0.4-1.1-0.7-1.8-0.7c-0.7,0-1.3,0.2-1.8,0.7c-0.5,0.4-0.8,1.1-0.8,2.1v14.3c0,0.9,0.3,1.6,0.8,2.1c0.5,0.4,1.1,0.7,1.8,0.7
			c0.7,0,1.3-0.2,1.8-0.7c0.5-0.4,0.8-1.1,0.8-2.1v-5.1h-3.1v-3.4h7v8.5c0,1.1-0.2,2.1-0.6,2.9c-0.4,0.8-0.9,1.5-1.5,2
			c-0.6,0.6-1.3,1-2.1,1.3c-0.8,0.3-1.6,0.4-2.3,0.4c-0.8,0-1.6-0.1-2.3-0.4s-1.5-0.7-2.1-1.3c-0.6-0.5-1.1-1.2-1.5-2
			c-0.4-0.8-0.6-1.8-0.6-2.9V86.4z"/>
	</g>
</g>
</svg>
