<?xml version="1.0" standalone="no"?>
<!DOCTYPE svg PUBLIC "-//W3C//DTD SVG 20010904//EN"
 "http://www.w3.org/TR/2001/REC-SVG-20010904/DTD/svg10.dtd">
<svg version="1.0" xmlns="http://www.w3.org/2000/svg"
 width="1184.000000pt" height="1184.000000pt" viewBox="0 0 1184.000000 1184.000000"
 preserveAspectRatio="xMidYMid meet">
<metadata>
Created by potrace 1.14, written by Peter Selinger 2001-2017
</metadata>
<g transform="translate(0.000000,1184.000000) scale(0.100000,-0.100000)"
fill="#000000" stroke="none">
<path d="M5779 11836 c-2 -3 -16 -7 -29 -10 -132 -26 -243 -114 -308 -242 -21
-41 -49 -140 -46 -161 1 -7 2 -17 3 -22 0 -5 20 -8 44 -6 259 24 559 23 840 0
l37 -3 -5 52 c-3 28 -8 60 -11 71 -14 48 -59 128 -95 168 -22 23 -39 45 -39
49 0 5 -3 7 -7 6 -5 -2 -24 9 -44 25 -20 15 -42 27 -50 27 -8 0 -19 4 -24 9
-22 19 -85 33 -171 37 -50 2 -92 2 -95 0z"/>
<path d="M5468 11255 c-2 -2 -79 -5 -173 -9 -93 -3 -195 -8 -225 -11 -30 -2
-93 -6 -139 -9 -81 -6 -131 -10 -236 -21 -27 -3 -72 -8 -100 -10 -68 -6 -131
-13 -174 -20 -20 -3 -54 -7 -76 -10 -46 -5 -122 -16 -147 -21 -9 -1 -38 -5
-65 -9 -26 -4 -59 -9 -73 -11 -14 -2 -43 -7 -65 -10 -22 -3 -46 -7 -54 -10 -8
-3 -30 -7 -50 -10 -20 -3 -47 -7 -61 -10 -14 -3 -38 -7 -55 -10 -16 -3 -82
-17 -145 -31 -63 -13 -122 -26 -130 -28 -8 -2 -62 -15 -120 -30 -58 -15 -114
-29 -125 -30 -11 -2 -21 -4 -22 -5 -2 -2 -6 -3 -10 -4 -97 -25 -157 -53 -199
-94 -163 -162 -62 -445 166 -468 48 -4 70 -1 185 31 33 10 65 18 70 20 6 1 17
5 26 9 9 4 27 8 41 10 13 1 29 6 36 10 7 4 12 5 12 2 0 -2 15 0 33 5 37 11
188 46 232 53 17 3 46 8 65 11 19 3 54 10 76 15 49 11 264 46 343 55 30 4 63
9 75 11 25 5 98 15 146 19 19 2 35 4 35 5 0 1 25 3 55 6 79 6 135 12 135 14 0
0 29 3 65 5 36 2 92 7 125 10 245 22 380 27 825 28 370 0 660 -7 750 -18 19
-2 78 -7 130 -11 94 -6 113 -8 220 -18 30 -3 75 -8 100 -10 62 -6 160 -16 190
-21 81 -11 110 -15 150 -20 25 -3 59 -8 75 -11 17 -3 44 -7 60 -9 86 -10 132
-16 146 -21 10 -2 30 -6 45 -9 16 -2 45 -6 64 -10 19 -3 49 -8 65 -11 62 -10
120 -21 215 -40 41 -9 86 -18 100 -20 14 -2 45 -9 70 -14 25 -6 54 -12 65 -14
11 -2 52 -12 90 -21 39 -9 79 -18 90 -20 11 -2 41 -9 67 -14 62 -13 126 -7
180 17 80 35 147 123 153 199 2 25 6 47 8 50 8 7 -23 114 -41 142 -41 65 -107
109 -197 130 -27 7 -53 12 -57 12 -4 0 -22 5 -40 10 -18 5 -51 14 -73 18 -81
18 -351 73 -375 77 -14 2 -36 7 -50 9 -14 3 -38 8 -55 10 -16 3 -52 10 -80 15
-27 5 -66 12 -85 14 -19 3 -44 7 -55 10 -17 3 -46 8 -140 21 -11 2 -58 8 -105
15 -47 6 -96 13 -110 15 -123 18 -309 38 -445 49 -27 3 -72 7 -100 10 -66 7
-169 15 -285 21 -52 3 -135 8 -185 11 -88 5 -852 13 -857 9z"/>
<path d="M5408 10455 c-2 -2 -73 -6 -158 -9 -85 -3 -184 -8 -220 -11 -36 -3
-96 -7 -134 -10 -38 -3 -99 -8 -135 -11 -36 -3 -86 -8 -111 -9 -25 -2 -45 -4
-45 -5 0 -1 -18 -3 -40 -4 -60 -5 -271 -31 -325 -41 -14 -2 -43 -6 -65 -9 -76
-10 -191 -26 -215 -31 -9 -2 -33 -6 -51 -9 -19 -3 -45 -8 -59 -10 -14 -3 -41
-7 -60 -10 -62 -10 -94 -16 -140 -27 -25 -5 -59 -12 -75 -14 -17 -2 -30 -4
-30 -5 0 -3 -36 -10 -125 -25 -8 -1 -22 -5 -30 -8 -20 -7 -108 -28 -143 -34
-16 -2 -135 -33 -265 -69 -131 -35 -248 -66 -261 -69 -13 -3 -39 -12 -57 -20
-19 -8 -34 -12 -34 -10 0 3 -17 -1 -37 -9 -21 -8 -103 -35 -183 -61 -80 -26
-154 -51 -165 -56 -11 -5 -51 -20 -90 -34 -38 -14 -77 -29 -85 -32 -8 -3 -17
-7 -20 -8 -18 -6 -51 -20 -87 -36 -24 -10 -45 -19 -48 -19 -3 0 -36 -14 -73
-31 -37 -18 -86 -40 -110 -50 -64 -28 -108 -65 -143 -122 -26 -43 -32 -63 -35
-127 -2 -63 1 -83 20 -123 64 -131 194 -190 330 -150 39 12 54 12 77 3 16 -7
29 -16 29 -20 0 -3 11 -13 25 -20 29 -16 77 -88 96 -145 10 -32 13 -366 14
-1735 1 -1332 4 -1705 14 -1740 42 -151 180 -269 333 -285 47 -5 255 -7 303
-2 17 1 42 -1 58 -5 16 -4 27 -3 27 3 0 6 5 7 11 4 9 -6 51 -7 129 -4 8 0 53
0 100 0 47 0 94 -1 105 -1 97 1 152 2 160 1 84 -1 347 0 370 2 17 1 42 -1 58
-5 16 -4 27 -3 27 3 0 6 5 7 11 4 9 -6 51 -7 129 -4 8 0 53 0 100 0 47 0 94
-1 105 -1 97 1 152 2 160 1 84 -1 347 0 370 2 17 1 42 -1 58 -5 16 -4 27 -3
27 3 0 6 5 7 11 4 9 -6 51 -7 129 -4 8 0 53 0 100 0 47 0 94 -1 105 -1 97 1
152 2 160 1 84 -1 347 0 370 2 17 1 42 -1 58 -5 16 -4 27 -3 27 3 0 6 5 7 11
4 9 -6 51 -7 129 -4 8 0 53 0 100 0 47 0 94 -1 105 -1 112 1 152 2 165 1 8 0
44 0 80 0 36 0 72 0 80 0 8 0 44 0 80 0 36 0 70 0 75 0 84 -1 347 0 370 2 17
1 42 -1 58 -5 16 -4 27 -3 27 3 0 6 5 7 11 4 9 -6 51 -7 129 -4 8 0 53 0 100
0 47 0 94 -1 105 -1 104 1 152 2 160 1 51 -1 186 0 210 2 17 1 42 -1 58 -5 16
-4 27 -3 27 3 0 6 5 7 11 4 6 -4 34 -7 62 -6 56 1 74 1 110 1 12 0 36 1 52 3
17 1 42 -1 58 -5 16 -4 27 -3 27 3 0 6 5 7 11 4 6 -4 34 -7 62 -6 56 1 74 1
110 1 12 0 36 1 52 3 17 1 42 -1 58 -5 16 -4 27 -3 27 3 0 6 5 7 11 4 6 -4 34
-7 62 -6 56 1 74 1 110 1 12 0 36 1 52 3 17 1 42 -1 58 -5 16 -4 27 -3 27 3 0
6 5 7 10 4 6 -4 34 -6 63 -6 29 0 75 0 102 0 101 -1 181 0 236 4 63 5 169 35
169 48 0 5 7 9 15 9 8 0 15 5 15 10 0 6 5 10 12 10 17 0 94 87 117 134 45 92
44 43 46 1831 1 1396 4 1705 15 1730 13 30 16 39 19 53 2 13 65 76 103 105 42
31 55 32 118 13 84 -25 189 -6 242 43 12 12 25 21 29 21 9 0 55 73 51 83 -1 4
2 7 7 7 11 0 25 73 23 120 -3 77 -24 122 -83 181 -31 31 -67 59 -80 62 -13 3
-55 17 -94 32 -38 15 -74 28 -80 29 -5 2 -17 6 -25 9 -50 20 -139 50 -163 54
-15 3 -30 9 -33 14 -3 5 -15 9 -28 9 -12 0 -26 3 -29 7 -11 10 -109 43 -129
43 -10 0 -18 5 -18 11 0 5 -5 7 -10 4 -6 -4 -16 -2 -23 3 -7 5 -23 12 -37 15
-14 3 -86 24 -160 46 -74 23 -143 44 -152 46 -36 10 -55 15 -128 36 -75 21
-483 123 -530 133 -14 3 -83 18 -155 34 -71 16 -137 30 -145 30 -8 0 -42 7
-75 15 -33 9 -78 18 -100 21 -22 3 -51 8 -65 11 -28 6 -44 9 -110 21 -25 4
-49 8 -55 9 -22 2 -113 17 -160 25 -27 5 -70 12 -95 15 -25 2 -58 7 -75 10
-16 4 -47 8 -70 10 -22 2 -56 6 -75 9 -19 3 -55 7 -80 10 -153 18 -137 17
-285 31 -69 7 -157 14 -240 20 -38 2 -108 7 -155 11 -47 3 -123 8 -170 10 -99
5 -868 12 -872 9z m-1175 -1443 c15 -6 27 -9 27 -6 0 14 122 -62 162 -100 52
-51 103 -143 114 -206 8 -49 14 -2699 5 -2715 -3 -5 -6 -17 -6 -25 -3 -41 -44
-127 -85 -177 -41 -50 -166 -140 -178 -128 -2 2 -16 -2 -31 -9 -21 -11 -142
-13 -651 -11 -344 1 -632 4 -640 6 -140 40 -267 165 -295 289 -13 59 -24 190
-15 190 7 0 4 89 -3 97 -4 3 -2 13 3 23 5 10 7 20 3 23 -7 8 -10 97 -3 97 7 0
4 89 -3 97 -4 3 -2 13 3 23 5 10 7 20 3 23 -7 8 -10 97 -3 97 7 0 4 89 -3 97
-4 3 -2 13 3 23 5 10 7 20 3 23 -7 8 -10 97 -3 97 7 0 4 89 -3 97 -4 3 -2 13
3 23 5 10 7 20 3 23 -7 8 -10 97 -3 97 7 0 4 89 -3 97 -4 3 -2 13 3 23 5 10 7
20 3 23 -7 8 -10 97 -3 97 7 0 4 89 -3 97 -4 3 -2 13 3 23 5 10 7 20 3 23 -7
8 -10 97 -3 97 7 0 4 89 -3 97 -4 3 -2 13 3 23 5 10 7 20 3 23 -7 8 -10 97 -3
97 7 0 4 89 -3 97 -4 3 -2 13 3 23 5 10 7 20 3 23 -7 8 -10 97 -3 97 7 0 4 89
-3 97 -4 3 -2 13 3 23 5 10 7 20 3 23 -7 8 -10 97 -3 97 7 0 4 89 -3 97 -4 3
-2 13 3 23 5 10 7 20 3 23 -7 8 -10 97 -3 97 7 0 4 89 -3 97 -4 3 -4 11 0 16
4 6 8 26 9 44 2 41 35 133 47 133 4 0 6 4 2 10 -9 15 116 135 170 160 27 13
70 29 96 34 67 15 1234 13 1272 -2z m2257 4 c25 -5 50 -12 56 -18 7 -5 22 -11
34 -13 13 -2 30 -11 40 -20 9 -8 20 -15 24 -15 26 0 143 -155 152 -203 2 -7 6
-23 10 -37 8 -30 10 -2700 2 -2750 -3 -19 -11 -48 -18 -65 -6 -16 -11 -32 -10
-34 1 -2 -2 -7 -7 -10 -5 -3 -19 -22 -31 -43 -19 -30 -75 -86 -117 -116 -17
-12 -88 -41 -126 -50 -20 -5 -305 -10 -638 -10 -650 0 -642 0 -742 55 -87 47
-179 165 -196 253 -8 37 -8 2751 0 2780 27 100 120 215 212 260 53 26 56 27
124 38 59 9 1174 7 1231 -2z m2303 -4 c15 -6 27 -9 27 -6 0 11 117 -58 152
-90 31 -28 104 -129 106 -146 0 -3 3 -12 6 -20 19 -51 21 -257 21 -1450 -1
-1277 -2 -1327 -20 -1380 -11 -30 -18 -58 -17 -62 1 -5 -2 -8 -7 -8 -5 0 -13
-9 -16 -20 -10 -31 -94 -113 -148 -144 -89 -52 -97 -53 -741 -53 -634 -1 -645
0 -740 48 -83 41 -186 168 -204 249 -10 50 -15 293 -9 513 1 53 0 97 -3 97 -5
0 -3 247 3 293 2 15 1 27 -2 27 -3 0 -5 53 -4 117 2 101 3 304 2 353 -1 8 0
26 1 40 1 14 1 77 1 140 -1 63 0 159 2 213 1 53 0 97 -3 97 -3 0 -4 40 -2 90
1 49 3 131 5 180 1 50 -1 90 -4 90 -3 0 -4 12 -2 28 8 59 8 292 0 292 -5 0 -6
4 -3 8 3 5 6 46 7 93 3 136 47 241 135 318 53 47 140 91 192 97 20 3 37 6 38
7 1 1 272 2 601 1 415 -1 606 -5 626 -12z"/>
<path d="M1667 7736 c-52 -15 -106 -61 -128 -110 -18 -40 -19 -113 -19 -2257
0 -2409 -3 -2270 54 -2348 34 -46 80 -72 134 -76 54 -3 93 12 135 51 66 62 61
-129 62 2334 0 1229 -3 2251 -8 2271 -22 90 -142 160 -230 135z"/>
<path d="M9958 7735 c-56 -19 -92 -50 -122 -106 l-29 -52 1 -2231 c0 -1227 3
-2241 6 -2253 25 -111 167 -180 264 -129 15 8 40 27 56 42 62 59 58 -116 58
2335 0 1750 -3 2246 -12 2275 -28 84 -144 146 -222 119z"/>
<path d="M2598 4965 c-3 -3 -36 -7 -74 -9 -116 -7 -190 -40 -264 -117 -74 -78
-91 -112 -109 -214 -4 -22 -6 -454 -6 -960 1 -864 2 -923 19 -975 10 -30 25
-62 32 -71 8 -8 14 -20 14 -26 0 -5 25 -33 54 -62 58 -55 143 -100 204 -108
55 -7 6740 -8 6788 0 72 11 151 53 210 111 44 45 91 118 93 146 0 3 6 25 13
50 11 36 13 234 12 955 0 501 -4 930 -8 955 -11 66 -55 147 -108 201 -80 81
-178 119 -310 120 -32 0 -62 -2 -67 -5 -5 -4 -12 -2 -16 3 -3 7 -15 7 -29 1
-13 -5 -27 -6 -30 -3 -7 7 -95 8 -102 0 -3 -3 -19 -1 -35 3 -16 5 -29 6 -29 2
0 -8 -108 -7 -117 1 -3 3 -15 2 -27 -3 -13 -4 -29 -5 -36 0 -7 5 -23 5 -35 0
-12 -5 -28 -4 -35 0 -8 5 -21 5 -31 0 -9 -5 -19 -7 -22 -4 -8 8 -106 9 -113 1
-3 -3 -19 -1 -35 3 -16 5 -29 5 -29 1 0 -4 -20 -5 -45 -1 -25 4 -48 3 -50 -1
-3 -4 -19 -4 -35 1 -17 5 -30 6 -30 2 0 -8 -108 -7 -117 1 -3 3 -15 2 -27 -3
-13 -4 -29 -5 -36 0 -7 5 -23 5 -35 0 -12 -5 -28 -4 -35 0 -8 5 -21 5 -31 0
-9 -5 -19 -7 -22 -4 -8 8 -106 9 -113 1 -3 -3 -19 -1 -35 3 -16 5 -29 6 -29 2
0 -8 -108 -7 -117 1 -3 3 -16 2 -29 -3 -13 -5 -26 -6 -29 0 -3 5 -18 5 -35 0
-17 -5 -30 -5 -30 0 0 5 -13 5 -29 0 -16 -4 -32 -6 -34 -4 -7 7 -106 9 -112 2
-4 -3 -20 -2 -36 2 -16 5 -29 6 -29 2 0 -8 -108 -7 -117 1 -3 3 -15 2 -27 -3
-13 -4 -29 -5 -36 0 -7 5 -23 5 -35 0 -12 -5 -28 -4 -35 0 -8 5 -21 5 -31 0
-9 -5 -19 -7 -22 -4 -8 8 -106 9 -113 1 -3 -3 -19 -1 -35 3 -16 5 -29 6 -29 2
0 -8 -108 -7 -117 1 -3 3 -16 2 -29 -3 -13 -5 -26 -6 -29 0 -3 5 -18 5 -35 0
-17 -5 -30 -5 -30 0 0 5 -12 5 -27 1 -16 -4 -39 -5 -53 -1 -14 3 -44 3 -68 0
-23 -4 -45 -3 -48 1 -2 5 -16 4 -29 -1 -14 -5 -27 -5 -30 0 -3 5 -18 5 -35 0
-17 -5 -30 -5 -30 0 0 5 -13 5 -29 0 -16 -4 -32 -6 -34 -4 -7 7 -106 9 -112 2
-4 -3 -20 -2 -36 2 -16 5 -29 6 -29 2 0 -8 -108 -7 -117 1 -3 3 -15 2 -27 -3
-13 -4 -29 -5 -36 0 -7 5 -23 5 -35 0 -12 -5 -28 -4 -35 0 -8 5 -21 5 -31 0
-9 -5 -19 -7 -22 -4 -8 8 -106 9 -113 1 -3 -3 -19 -1 -35 3 -16 5 -29 6 -29 2
0 -8 -108 -7 -117 1 -3 3 -16 2 -29 -3 -13 -5 -26 -6 -29 0 -3 5 -18 5 -35 0
-17 -5 -30 -5 -30 0 0 5 -12 5 -27 1 -16 -4 -39 -5 -53 -1 -14 3 -39 3 -55 0
-17 -4 -39 -4 -50 0 -11 4 -32 4 -47 -1 -15 -4 -30 -4 -33 1 -3 5 -19 5 -35 0
-17 -5 -32 -5 -35 0 -3 5 -16 5 -30 0 -13 -5 -27 -6 -29 -1 -3 4 -25 5 -49 1
-24 -3 -52 -3 -63 0 -10 4 -31 4 -46 -1 -15 -4 -30 -4 -33 1 -3 5 -19 5 -35 0
-17 -5 -32 -5 -35 0 -3 5 -16 5 -30 0 -13 -5 -26 -6 -29 -2 -3 5 -30 5 -61 2
-31 -3 -58 -3 -61 2 -3 4 -16 3 -29 -2 -14 -5 -27 -5 -30 0 -3 5 -18 5 -35 0
-17 -5 -30 -5 -30 0 0 5 -13 5 -29 0 -16 -4 -32 -6 -34 -4 -7 7 -106 9 -112 2
-4 -3 -20 -2 -36 2 -16 5 -29 6 -29 2 0 -8 -108 -7 -117 1 -3 3 -15 2 -27 -3
-13 -4 -29 -5 -36 0 -7 5 -23 5 -35 0 -12 -5 -28 -4 -35 0 -8 5 -21 5 -31 0
-9 -5 -19 -7 -22 -4 -8 8 -106 9 -113 1 -3 -3 -19 -1 -35 3 -16 5 -29 6 -29 2
0 -8 -108 -7 -117 1 -3 3 -16 2 -29 -3 -13 -5 -26 -6 -29 0 -3 5 -18 5 -35 0
-17 -5 -30 -5 -30 0 0 5 -12 5 -27 1 -16 -4 -39 -5 -53 -1 -14 3 -39 3 -55 0
-17 -4 -39 -4 -50 0 -11 4 -32 4 -47 -1 -15 -4 -30 -4 -33 1 -3 5 -19 5 -35 0
-17 -5 -32 -5 -35 0 -3 5 -16 5 -30 0 -13 -5 -27 -6 -29 -1 -3 4 -25 5 -49 1
-24 -3 -52 -3 -63 0 -10 4 -31 4 -46 -1 -15 -4 -30 -4 -33 1 -3 5 -19 5 -35 0
-17 -5 -32 -5 -35 0 -3 6 -15 6 -29 0 -14 -5 -27 -5 -33 1 -5 5 -12 7 -15 4z
m3622 -470 c12 -15 11 -22 -25 -157 -6 -23 -14 -57 -19 -85 -3 -13 -7 -27 -10
-32 -3 -5 -8 -26 -12 -47 -3 -20 -10 -49 -16 -63 -5 -14 -12 -36 -14 -48 -9
-51 -14 -70 -28 -117 -9 -26 -13 -52 -10 -57 3 -5 1 -9 -4 -9 -5 0 -9 -6 -9
-12 -1 -22 -58 -249 -70 -278 -3 -8 -7 -26 -9 -40 -1 -14 -12 -59 -24 -100
-11 -41 -22 -82 -24 -90 -2 -8 -9 -35 -16 -60 -13 -49 -13 -46 -25 -105 -12
-55 -12 -55 -15 -57 -1 -2 -3 -10 -5 -18 -1 -9 -13 -51 -25 -95 -26 -94 -28
-104 -29 -128 -1 -10 -11 -28 -24 -41 -22 -22 -31 -23 -143 -23 -105 -1 -122
2 -141 19 -23 22 -23 24 3 131 1 4 2 8 4 10 1 1 3 9 5 17 3 16 32 124 40 150
3 8 12 42 20 75 22 93 55 218 62 235 3 8 5 18 5 22 -1 4 4 27 12 50 13 39 92
337 101 381 2 9 6 21 9 25 3 5 7 19 9 33 16 83 128 482 142 503 17 26 18 26
145 26 101 0 130 -3 140 -15z m347 -475 c65 -27 126 -54 135 -60 10 -5 25 -10
33 -10 8 0 15 -4 15 -10 0 -5 7 -10 15 -10 8 0 45 -14 82 -31 78 -35 161 -72
283 -125 47 -20 92 -44 101 -53 12 -13 15 -43 16 -143 1 -123 1 -128 -24 -152
-14 -15 -30 -26 -35 -26 -5 0 -33 -11 -61 -23 -29 -13 -101 -45 -162 -71 -60
-27 -119 -52 -130 -57 -271 -121 -411 -177 -419 -169 -15 15 -24 159 -11 181
4 5 2 9 -3 9 -13 0 -2 52 16 73 8 9 18 17 22 17 4 0 24 7 44 15 20 8 38 15 41
15 3 0 31 12 62 26 32 14 85 36 118 49 33 13 74 29 90 36 17 7 32 13 35 14 9
3 65 26 93 38 15 7 27 14 27 17 0 3 -58 27 -128 54 -70 27 -131 52 -137 55 -5
3 -12 6 -15 7 -7 1 -62 23 -85 34 -11 5 -49 21 -85 35 -77 31 -91 44 -96 82
-7 43 -5 133 1 143 3 6 2 10 -3 10 -14 0 -2 54 16 68 9 6 19 12 23 12 4 0 61
-22 126 -50z m-1225 7 c2 -12 4 -67 2 -120 -2 -98 -13 -132 -47 -135 -17 -1
-100 -32 -112 -42 -5 -4 -21 -11 -35 -15 -24 -7 -52 -18 -124 -50 -19 -8 -36
-15 -39 -15 -2 0 -21 -7 -41 -15 -20 -8 -38 -15 -41 -15 -3 1 -18 -6 -33 -15
-15 -8 -40 -20 -57 -26 l-30 -10 50 -21 c28 -11 58 -24 69 -30 10 -5 26 -11
35 -13 9 -2 87 -34 174 -70 87 -36 161 -65 165 -65 4 0 20 -11 36 -23 29 -24
29 -25 31 -138 1 -63 0 -120 -3 -126 -10 -28 -58 -16 -207 52 -27 12 -84 37
-125 55 -41 18 -99 43 -128 56 -29 13 -54 24 -56 24 -2 0 -25 10 -52 22 -27
12 -52 21 -56 20 -5 -1 -8 3 -8 8 0 5 -3 9 -7 8 -5 -1 -30 8 -57 20 -28 13
-60 25 -72 28 -11 3 -34 17 -50 32 l-30 27 2 129 c1 146 -3 139 94 183 30 14
56 25 57 24 2 0 38 16 80 36 76 34 123 55 133 58 3 1 31 13 64 28 32 15 60 27
62 27 2 0 37 15 76 33 40 18 89 40 108 47 19 8 51 22 70 32 19 9 49 17 66 18
25 0 33 -5 36 -23z"/>
<path d="M1733 2189 c-34 -3 -70 -12 -79 -20 -9 -8 -19 -12 -22 -10 -9 8 -70
-60 -90 -101 -18 -37 -20 -59 -18 -163 3 -127 5 -136 25 -174 42 -75 102 -112
195 -117 32 -1 60 -5 63 -8 3 -2 16 -1 29 4 13 5 26 6 29 0 3 -5 18 -5 35 0
17 5 30 6 30 2 0 -8 62 -8 76 0 5 3 18 2 29 -2 11 -4 30 -4 42 1 12 5 25 4 28
-1 3 -5 18 -5 35 0 17 5 30 6 30 2 0 -8 62 -8 76 0 5 3 18 2 29 -2 11 -4 30
-4 42 1 12 5 25 4 28 -1 3 -5 18 -5 35 0 17 5 30 6 30 2 0 -8 62 -8 76 0 5 3
18 2 29 -2 11 -4 30 -4 42 1 12 5 25 4 28 -1 3 -5 18 -5 35 0 17 5 30 6 30 2
0 -8 62 -8 76 0 5 3 18 2 29 -2 11 -4 30 -4 42 1 12 5 25 4 28 -1 3 -5 18 -5
35 0 17 5 30 6 30 2 0 -8 62 -8 76 0 5 3 18 2 29 -2 11 -4 30 -4 42 1 12 5 25
4 28 -1 3 -5 18 -5 35 0 17 5 30 6 30 2 0 -6 65 -7 80 -2 3 2 9 2 15 0 28 -5
95 -4 95 2 0 4 13 3 29 -2 16 -4 33 -5 38 -2 9 8 -44 -54 -67 -78 -8 -8 -49
-53 -90 -100 -41 -47 -91 -103 -111 -125 -20 -22 -47 -52 -60 -67 -77 -85
-158 -175 -184 -204 -16 -17 -52 -57 -78 -87 -27 -31 -63 -71 -80 -90 -18 -19
-60 -65 -93 -103 -34 -38 -72 -81 -85 -95 -25 -26 -126 -142 -144 -163 -44
-52 -57 -145 -30 -211 42 -101 161 -185 285 -202 57 -8 6395 -8 6440 0 58 10
161 60 201 97 110 101 123 240 33 345 -40 47 -116 133 -152 173 -19 21 -48 54
-65 75 -18 21 -48 55 -67 76 -19 21 -57 64 -85 96 -27 32 -59 68 -70 80 -11
11 -45 50 -75 85 -30 36 -64 74 -75 86 -42 45 -145 160 -167 189 -13 16 -34
41 -48 55 -14 14 -53 57 -88 96 -55 63 -60 72 -42 77 11 3 20 2 20 -2 0 -7 64
-6 77 2 4 2 17 1 28 -3 11 -4 30 -4 42 1 12 5 25 4 28 -1 3 -5 18 -5 35 0 17
5 30 6 30 2 0 -8 62 -8 76 0 5 3 18 2 29 -2 11 -4 30 -4 42 1 12 5 25 4 28 -1
3 -5 18 -5 35 0 17 5 30 6 30 2 0 -8 62 -8 76 0 5 3 18 2 29 -2 11 -4 30 -4
42 1 12 5 25 4 28 -1 3 -5 18 -5 35 0 17 5 30 6 30 2 0 -8 62 -8 76 0 5 3 18
2 29 -2 11 -4 30 -4 42 1 12 5 25 4 28 -1 3 -5 18 -5 35 0 17 5 30 6 30 2 0
-8 62 -8 76 0 5 3 18 2 29 -2 11 -4 30 -4 42 1 12 5 25 4 28 -1 3 -5 18 -5 35
0 17 5 30 6 30 2 0 -8 62 -8 76 0 5 3 18 2 29 -2 11 -4 30 -4 42 1 12 5 25 4
28 -1 3 -5 18 -5 35 0 17 5 30 6 30 2 0 -8 68 -7 76 1 3 3 16 2 29 -3 13 -5
25 -7 26 -5 2 1 26 6 52 9 79 11 142 59 173 131 25 61 24 255 -3 315 -24 55
-73 105 -122 126 -32 14 -475 16 -4161 17 -2269 1 -4153 -1 -4187 -4z"/>
</g>
</svg>
