<?xml version="1.0" encoding="utf-8"?>
<!-- Generator: Adobe Illustrator 28.0.0, SVG Export Plug-In . SVG Version: 6.00 Build 0)  -->
<svg version="1.1" id="Layer_1" xmlns="http://www.w3.org/2000/svg" xmlns:xlink="http://www.w3.org/1999/xlink" x="0px" y="0px"
	 viewBox="0 0 202.6 34.8" style="enable-background:new 0 0 202.6 34.8;" xml:space="preserve">
<style type="text/css">
	.st0{fill:#F22613;}
</style>
<g>
	<path class="st0" d="M17.3,10.1h-4.9V9c0-1.1-0.3-2.1-0.8-2.9C11,5.3,10.1,4.9,8.9,4.9C8.2,4.9,7.7,5,7.3,5.3c-0.4,0.3-0.8,0.6-1,1
		C6,6.7,5.8,7.1,5.7,7.7C5.6,8.2,5.6,8.7,5.6,9.3c0,0.7,0,1.2,0.1,1.7c0,0.4,0.2,0.8,0.4,1.2c0.2,0.4,0.5,0.7,0.8,0.9
		c0.4,0.3,0.9,0.5,1.5,0.8l3.7,1.5c1.1,0.4,2,0.9,2.6,1.5c0.7,0.6,1.2,1.2,1.6,1.9c0.4,0.8,0.6,1.6,0.7,2.6c0.1,1,0.2,2.1,0.2,3.3
		c0,1.4-0.1,2.8-0.4,4c-0.3,1.2-0.8,2.3-1.4,3.1c-0.7,0.9-1.6,1.6-2.6,2.1c-1.1,0.5-2.4,0.8-4,0.8c-1.2,0-2.3-0.2-3.3-0.6
		c-1-0.4-1.9-1-2.6-1.7c-0.7-0.7-1.3-1.6-1.8-2.6s-0.6-2-0.6-3.2v-1.8h4.9v1.5c0,0.9,0.3,1.7,0.8,2.4c0.5,0.7,1.4,1.1,2.7,1.1
		c0.8,0,1.5-0.1,1.9-0.4c0.5-0.2,0.8-0.6,1.1-1c0.3-0.4,0.4-1,0.5-1.6c0-0.6,0.1-1.3,0.1-2.1c0-0.9,0-1.6-0.1-2.2
		c-0.1-0.6-0.2-1-0.4-1.4c-0.2-0.4-0.5-0.6-0.9-0.9c-0.4-0.2-0.9-0.5-1.5-0.7L6,18.1c-2.1-0.9-3.5-2-4.2-3.4s-1.1-3.2-1.1-5.4
		c0-1.3,0.2-2.5,0.5-3.6c0.4-1.2,0.9-2.1,1.6-3c0.7-0.8,1.5-1.5,2.6-2C6.4,0.2,7.7,0,9.1,0c1.2,0,2.3,0.2,3.3,0.7s1.9,1,2.6,1.8
		c1.5,1.5,2.2,3.3,2.2,5.3V10.1z"/>
	<path class="st0" d="M20.6,34.5V0.3h14.6v4.6h-9.7v10.4h8.4v4.6h-8.4v14.6H20.6z"/>
	<path d="M62.8,24.7v2.1c0,1.1-0.2,2.1-0.6,3c-0.4,0.9-1,1.8-1.7,2.5c-0.7,0.7-1.5,1.3-2.5,1.8c-0.9,0.4-2,0.6-3,0.6
		c-0.9,0-1.9-0.1-2.8-0.4c-1-0.3-1.8-0.7-2.6-1.3c-0.8-0.6-1.4-1.5-1.9-2.5S47,28.3,47,26.7V7.9c0-1.1,0.2-2.2,0.6-3.1
		s0.9-1.8,1.6-2.5s1.5-1.3,2.5-1.7c1-0.4,2.1-0.6,3.2-0.6c2.3,0,4.2,0.8,5.6,2.3c0.7,0.7,1.3,1.6,1.7,2.6c0.4,1,0.6,2.1,0.6,3.3v1.9
		h-4.9V8.4c0-1-0.3-1.8-0.8-2.5c-0.5-0.7-1.3-1.1-2.2-1.1c-1.2,0-2,0.4-2.4,1.1c-0.4,0.8-0.6,1.7-0.6,2.9v17.5c0,1,0.2,1.8,0.6,2.5
		c0.4,0.7,1.2,1,2.3,1c0.3,0,0.7-0.1,1-0.2c0.4-0.1,0.7-0.3,1-0.6c0.3-0.3,0.5-0.6,0.7-1.1c0.2-0.4,0.3-1,0.3-1.7v-1.7H62.8z"/>
	<path d="M66.4,34.5V0.3h4.9v34.2H66.4z"/>
	<path d="M92.6,0.3l-7,34.2h-4.3l-7-34.2h5.2l3.9,23.9h0.1l3.9-23.9H92.6z"/>
	<path d="M95.7,34.5V0.3h4.9v34.2H95.7z"/>
	<path d="M120.2,24.7v2.1c0,1.1-0.2,2.1-0.6,3c-0.4,0.9-1,1.8-1.7,2.5c-0.7,0.7-1.5,1.3-2.5,1.8c-0.9,0.4-2,0.6-3,0.6
		c-0.9,0-1.9-0.1-2.8-0.4c-1-0.3-1.8-0.7-2.6-1.3c-0.8-0.6-1.4-1.5-1.9-2.5s-0.7-2.3-0.7-3.9V7.9c0-1.1,0.2-2.2,0.6-3.1
		s0.9-1.8,1.6-2.5s1.5-1.3,2.5-1.7c1-0.4,2.1-0.6,3.2-0.6c2.3,0,4.2,0.8,5.6,2.3c0.7,0.7,1.3,1.6,1.7,2.6c0.4,1,0.6,2.1,0.6,3.3v1.9
		h-4.9V8.4c0-1-0.3-1.8-0.8-2.5c-0.5-0.7-1.3-1.1-2.2-1.1c-1.2,0-2,0.4-2.4,1.1c-0.4,0.8-0.6,1.7-0.6,2.9v17.5c0,1,0.2,1.8,0.6,2.5
		c0.4,0.7,1.2,1,2.3,1c0.3,0,0.7-0.1,1-0.2c0.4-0.1,0.7-0.3,1-0.6c0.3-0.3,0.5-0.6,0.7-1.1c0.2-0.4,0.3-1,0.3-1.7v-1.7H120.2z"/>
	<path d="M136.4,34.5V4.9h-5.7V0.3h16.2v4.6h-5.7v29.6H136.4z"/>
	<path d="M149.5,34.5V0.3h14.6v4.6h-9.7v10h8.4v4.6h-8.4v10h9.7v4.9H149.5z"/>
	<path d="M182.8,24.7v2.1c0,1.1-0.2,2.1-0.6,3c-0.4,0.9-1,1.8-1.7,2.5c-0.7,0.7-1.5,1.3-2.5,1.8c-0.9,0.4-2,0.6-3,0.6
		c-0.9,0-1.9-0.1-2.8-0.4c-1-0.3-1.8-0.7-2.6-1.3c-0.8-0.6-1.4-1.5-1.9-2.5s-0.7-2.3-0.7-3.9V7.9c0-1.1,0.2-2.2,0.6-3.1
		s0.9-1.8,1.6-2.5s1.5-1.3,2.5-1.7c1-0.4,2.1-0.6,3.2-0.6c2.3,0,4.2,0.8,5.6,2.3c0.7,0.7,1.3,1.6,1.7,2.6c0.4,1,0.6,2.1,0.6,3.3v1.9
		H178V8.4c0-1-0.3-1.8-0.8-2.5c-0.5-0.7-1.3-1.1-2.2-1.1c-1.2,0-2,0.4-2.4,1.1c-0.4,0.8-0.6,1.7-0.6,2.9v17.5c0,1,0.2,1.8,0.6,2.5
		c0.4,0.7,1.2,1,2.3,1c0.3,0,0.7-0.1,1-0.2c0.4-0.1,0.7-0.3,1-0.6c0.3-0.3,0.5-0.6,0.7-1.1c0.2-0.4,0.3-1,0.3-1.7v-1.7H182.8z"/>
	<path d="M186.3,34.5V0.3h4.9v14.6h6V0.3h4.9v34.2h-4.9V19.2h-6v15.2H186.3z"/>
</g>
</svg>
